HIERARCHY
ROOT hip
{
	OFFSET 0.000000 0.000000 0.000000 
	CHANNELS 6 Xposition Yposition Zposition Xrotation Zrotation Yrotation
	JOINT abdomen
	{
		OFFSET 0.000000 3.402643 0.000000 
		CHANNELS 3 Xrotation Zrotation Yrotation
		JOINT chest
		{
			OFFSET 0.000000 8.438565 -0.680529 
			CHANNELS 3 Xrotation Zrotation Yrotation
			JOINT neck
			{
				OFFSET 0.000000 10.207942 -0.272212 
				CHANNELS 3 Xrotation Zrotation Yrotation
				JOINT head
				{
					OFFSET 0.000000 3.130431 0.000000 
					CHANNELS 3 Xrotation Zrotation Yrotation
					End Site
					{
						OFFSET 0.000000 3.130435 0.000000 
					}
				}
			}
			JOINT lCollar
			{
				OFFSET 3.470700 6.669187 -0.816635 
				CHANNELS 3 Yrotation Zrotation Xrotation
				JOINT lShldr
				{
					OFFSET 3.198488 0.000000 0.000000 
					CHANNELS 3 Zrotation Yrotation Xrotation
					JOINT lForeArm
					{
						OFFSET 10.139888 0.000000 0.000000 
						CHANNELS 3 Yrotation Zrotation Xrotation
						JOINT lHand
						{
							OFFSET 8.370511 0.000000 0.000000 
							CHANNELS 3 Zrotation Yrotation Xrotation
							End Site
							{
								OFFSET 4.083176 0.000000 0.000000 
							}
						}
					}
				}
			}
			JOINT rCollar
			{
				OFFSET -3.470700 6.669187 -0.816635 
				CHANNELS 3 Yrotation Zrotation Xrotation
				JOINT rShldr
				{
					OFFSET -3.198488 0.000000 0.000000 
					CHANNELS 3 Zrotation Yrotation Xrotation
					JOINT rForeArm
					{
						OFFSET -10.139888 0.000000 0.000000 
						CHANNELS 3 Yrotation Zrotation Xrotation
						JOINT rHand
						{
							OFFSET -8.370511 0.000000 0.000000 
							CHANNELS 3 Zrotation Yrotation Xrotation
							End Site
							{
								OFFSET -4.083176 0.000000 0.000000 
							}
						}
					}
				}
			}
		}
	}
	JOINT lThigh
	{
		OFFSET 5.308129 -1.633274 1.361059 
		CHANNELS 3 Xrotation Zrotation Yrotation
		JOINT lShin
		{
			OFFSET -2.041588 -20.007561 0.000000 
			CHANNELS 3 Xrotation Zrotation Yrotation
			JOINT lFoot
			{
				OFFSET 0.000000 -19.190928 -1.224953 
				CHANNELS 3 Xrotation Yrotation Zrotation
				End Site
				{
					OFFSET 0.000000 -2.449906 4.627600 
				}
			}
		}
	}
	JOINT rThigh
	{
		OFFSET -5.308129 -1.633274 1.361059 
		CHANNELS 3 Xrotation Zrotation Yrotation
		JOINT rShin
		{
			OFFSET 2.041588 -20.007561 0.000000 
			CHANNELS 3 Xrotation Zrotation Yrotation
			JOINT rFoot
			{
				OFFSET 0.000000 -19.190928 -1.224953 
				CHANNELS 3 Xrotation Yrotation Zrotation
				End Site
				{
					OFFSET 0.000000 -2.449906 4.627600 
				}
			}
		}
	}
}
MOTION
Frames: 16
Frame Time: 0.041667
4.559187 54.147305 -1.155383 1.717851 1.553497 -12.009831 2.131975 1.054602 -1.576007 -3.808981 -2.035458 -7.882237 -0.028615 0.811866 -0.155633 -2.736490 2.625971 14.465354 -4.163769 -4.528854 -1.104868 -66.432838 11.819727 18.387470 -19.703154 -11.489723 2.348009 11.154500 -5.276600 -15.153600 -0.878180 6.296087 9.956695 68.524048 10.928356 -2.219560 23.091610 13.084843 20.219494 -2.475778 1.551899 1.661743 -10.738639 1.722617 -9.043113 15.311015 -4.414073 -1.093055 -9.694821 26.195412 3.126629 -12.650577 -2.241064 9.813327 15.420446 -1.864196 -0.987844 -2.725670 -0.318125 4.738522 
5.192987 53.900379 -0.161765 1.844962 1.435046 -24.745581 1.523498 4.172700 -1.078740 -4.384263 -1.028721 -14.403246 -0.028610 0.811847 -0.155631 -2.466439 4.839021 32.450001 -4.190555 -1.755151 -1.004387 -61.364666 11.872582 19.863209 -35.797287 -15.871747 2.295240 11.154499 -5.276600 -15.153599 -0.790101 7.515234 9.821447 66.103020 9.084069 -3.278980 28.669657 15.649232 20.545446 -2.613289 1.506756 3.631344 -14.041248 4.332358 -4.047435 21.326788 -4.995852 -1.523735 -14.389006 33.087666 6.147855 -13.836909 -1.404603 9.758850 21.926443 -3.078194 -2.138324 -9.605355 13.023143 5.775325 
5.794528 53.659855 0.691116 1.968060 1.320335 -37.081768 0.938393 7.227189 -0.635362 -4.943896 -0.027692 -20.848114 -0.028609 0.811843 -0.155630 -2.195817 6.611162 50.148396 -4.216903 0.973148 -0.905550 -56.124882 11.964259 21.338560 -51.195290 -19.814171 2.282028 11.154500 -5.276600 -15.153599 -0.720209 8.692280 9.688257 63.373707 7.034443 -3.900910 33.643120 17.748749 21.116589 -2.648123 1.498435 5.545874 -15.962762 8.105225 1.039097 26.061827 -5.570134 -2.083771 -18.433838 39.308517 9.041778 -14.701691 -1.955674 9.762583 26.461401 -3.904149 -3.238861 -15.996899 26.002323 8.481491 
6.226806 53.468597 1.034537 2.063860 1.231060 -46.689899 0.495220 9.706400 -0.402162 -5.386800 0.827748 -26.243900 -0.028617 0.811878 -0.155635 -1.958560 6.903540 64.747002 -4.238600 3.219980 -0.824156 -51.075600 12.154200 22.622101 -62.628201 -22.000000 2.382730 11.154500 -5.276600 -15.153600 -0.710937 9.597750 9.578120 60.122700 4.667290 -3.201460 36.258701 18.258200 22.309401 -2.387200 1.595640 7.056710 -16.744963 12.937504 5.192914 28.848537 -6.489572 -3.176660 -20.502699 44.039497 11.292998 -16.267429 -2.685394 9.780105 30.533005 -4.682427 -4.160177 -22.132553 35.992603 12.180374 
6.398068 53.358910 0.662304 2.115438 1.182993 -51.874485 0.266027 11.247216 -0.467867 -5.645555 1.421967 -29.837370 -0.028636 0.811957 -0.155646 -1.785457 5.068255 74.160179 -4.252538 4.663547 -0.771861 -46.546700 12.441498 23.572199 -67.698242 -21.505945 2.651565 11.154501 -5.276599 -15.153600 -0.774318 10.087802 9.506711 56.197815 1.945425 -0.736287 35.362526 16.593174 24.307228 -1.803901 1.807025 7.932014 -17.386393 17.086323 6.989312 29.369789 -7.944779 -5.083600 -18.245586 48.366493 10.043361 -17.476025 -2.873826 9.909013 32.541130 -5.038088 -4.770180 -25.365192 41.334938 14.526031 
6.397559 53.320877 0.018347 2.131308 1.168201 -53.472000 0.136812 12.080709 -0.650969 -5.787398 1.736326 -31.754108 -0.028644 0.811994 -0.155651 -1.694721 2.021233 79.213722 -4.260025 5.439104 -0.743766 -42.739155 12.583825 24.246365 -67.492294 -18.983559 3.062185 11.154501 -5.276599 -15.153600 -0.800778 10.361115 9.468415 51.691746 -0.868329 2.180744 32.198364 14.332378 26.520802 -1.537460 1.901043 8.407100 -17.987173 20.744678 4.867024 27.056097 -9.853326 -7.202572 -13.192299 53.579716 7.623219 -18.400578 -2.365825 10.060330 33.939171 -5.260028 -5.193151 -26.372816 42.951805 15.040737 
6.359776 53.334042 -0.290873 2.126340 1.172830 -52.951900 -0.052939 12.586500 -0.702398 -5.913230 1.776440 -32.339401 -0.028617 0.811878 -0.155635 -1.701420 -0.930649 81.461304 -4.263470 5.796170 -0.730831 -39.821701 12.278500 24.751900 -63.968399 -15.478100 3.568100 11.154500 -5.276600 -15.153600 -0.650340 10.702000 9.452300 46.758400 -3.436150 3.796220 28.609400 13.595300 28.167700 -2.393570 1.586100 8.834070 -18.616289 23.089882 -1.809516 22.454470 -11.861639 -8.834468 -5.947354 61.364952 3.521032 -18.361650 -2.018663 10.123592 34.572155 -5.382473 -5.400246 -26.804565 42.352997 14.829558 
6.399836 53.375908 0.197193 2.113349 1.184938 -51.589989 -0.421961 13.091502 -0.452639 -6.092429 1.581603 -32.003716 -0.028545 0.811566 -0.155592 -1.800364 -2.756734 82.251915 -4.264939 5.948420 -0.725316 -37.880116 11.382981 25.167177 -58.942825 -11.884273 4.118441 11.154500 -5.276600 -15.153600 -0.295749 11.300352 9.448883 41.458752 -5.496977 2.786930 26.112526 15.682442 28.631765 -4.626889 0.701182 9.434299 -19.586769 24.147141 -12.658610 17.504246 -13.778255 -9.583173 4.127729 71.738075 -4.443106 -16.841852 -2.432038 10.213646 33.654194 -5.240012 -5.399858 -27.358816 40.775677 14.806644 
6.555315 53.415848 1.369440 2.096921 1.200251 -49.887383 -0.921867 13.711800 -0.050374 -6.268283 1.325842 -31.418245 -0.028476 0.811275 -0.155551 -1.905333 -3.531260 82.115746 -4.265111 5.966143 -0.724673 -36.668339 10.395288 25.454887 -53.664734 -8.494589 4.644816 11.154500 -5.276599 -15.153600 -0.160643 11.968413 9.454483 35.482052 -7.096788 -0.449535 24.919468 18.618361 27.961868 -6.287922 -0.392391 9.906250 -21.207861 24.309250 -25.785431 13.528789 -15.545404 -9.126283 30.060230 81.846573 -29.536493 -14.070780 -3.697341 10.249887 31.286942 -4.841079 -5.276057 -27.955994 38.924461 15.078889 
6.844416 53.421211 2.968850 2.079582 1.216411 -48.151535 -1.462490 14.510770 0.276159 -6.352557 1.216868 -31.319361 -0.028479 0.811285 -0.155553 -1.909850 -3.604685 81.378304 -4.264318 5.883785 -0.727657 -35.857368 9.973575 25.548805 -49.241497 -5.451009 5.074450 11.154500 -5.276599 -15.153600 -0.781381 12.424012 9.466867 28.424612 -8.358326 -5.085386 24.915663 19.608625 26.373138 -4.876133 -1.202718 9.817661 -23.299856 23.935276 -37.393272 11.275266 -17.139578 -6.958885 -83.584526 95.602463 84.123833 -11.337169 -5.595605 10.132170 29.329573 -4.486433 -5.172033 -29.141241 37.148994 15.989139 
7.285336 53.359337 4.738408 2.063860 1.231060 -46.689899 -1.953663 15.551789 0.298725 -6.257017 1.462391 -32.443436 -0.028617 0.811878 -0.155635 -1.707440 -3.327470 80.365097 -4.262890 5.735790 -0.733018 -35.118198 10.776000 25.382700 -46.780499 -2.895500 5.334570 11.154500 -5.276600 -15.153600 -2.694322 12.384976 9.483808 19.882765 -9.404330 -10.292825 25.986549 15.858807 24.080711 2.109010 -1.237895 8.736272 -26.347166 23.653561 -43.940071 12.126105 -19.757299 -2.879338 -83.893753 95.609039 83.897530 -8.363935 -7.955482 9.943078 26.312809 -3.944936 -5.042988 -29.115543 35.937798 16.862001 
7.876431 53.200283 6.471745 2.052122 1.241992 -45.745213 -2.306057 16.771961 0.124630 -5.995187 2.113144 -34.490108 -0.028888 0.813035 -0.155796 -1.196776 -2.983472 78.672150 -4.260947 5.534554 -0.740308 -34.316448 12.819992 24.888918 -46.940800 -1.215739 5.351825 11.154500 -5.276600 -15.153600 -5.871546 11.693625 9.553043 9.821948 -9.978756 -16.255962 29.273361 6.466428 20.543663 14.522464 -0.165089 6.619350 -26.226864 22.652988 -42.423336 12.985589 -20.227829 4.149933 48.379738 77.550201 -41.958145 -5.776789 -11.021719 9.856418 22.993040 -3.317724 -4.911060 -28.473749 35.248684 18.333197 
8.536672 52.924976 8.165098 2.046094 1.247603 -45.301376 -2.433703 17.603287 1.203340 -5.987631 2.591949 -33.012074 -0.029006 0.813541 -0.155866 -0.297138 -2.590147 72.977524 -4.257758 5.204282 -0.752272 -34.096252 13.560073 23.994108 -48.588200 -1.782265 5.050564 11.154499 -5.276599 -15.153599 -8.028011 10.690241 9.922205 -0.315926 -8.310419 -27.206514 40.940536 -1.903186 12.196856 21.636871 1.712258 4.982279 -25.377876 21.796511 -36.558830 14.560638 -19.203430 10.511472 34.232674 66.111526 -20.102236 -4.005397 -14.043058 9.994865 20.972218 -2.910813 -4.745466 -29.282770 34.265827 20.602144 
9.165196 52.517025 9.865355 2.047340 1.246440 -45.277599 -2.251470 17.351500 5.319867 -6.756670 2.164650 -22.525299 -0.028617 0.811878 -0.155635 1.067040 -2.098350 59.229836 -4.252380 4.647130 -0.772456 -35.296398 9.810040 22.623501 -50.140202 -6.211330 4.354560 11.154500 -5.276600 -15.153600 -6.314400 9.839600 10.888900 -8.719820 -2.249350 -48.388100 68.408302 -0.692757 -5.280890 10.079300 3.931640 5.729970 -24.016445 21.729296 -22.112949 18.283306 -17.133402 11.218846 26.879795 52.588947 -3.902717 -1.733874 -16.910103 9.757304 18.061577 -2.343084 -4.479688 -31.647917 32.646240 23.430586 
9.690489 52.070938 11.651011 2.055668 1.238686 -45.658447 -1.748090 15.612434 13.111765 -8.164355 0.365881 -1.272400 -0.027831 0.808518 -0.155168 2.790096 -1.509952 36.674824 -4.244782 3.860150 -0.800965 -38.925972 1.556029 21.236244 -50.921223 -13.915949 3.520703 11.154501 -5.276600 -15.153601 1.655488 10.029406 11.949949 -13.444953 9.419330 -80.172012 109.112701 14.620512 -29.461807 -24.638756 5.677654 8.881689 -21.434290 22.788279 5.621136 28.760656 -13.566055 3.089725 5.905194 37.763550 9.597914 -0.255872 -18.664211 9.234777 17.204870 -2.163977 -4.159058 -36.496620 30.522579 26.441608 
10.158494 52.124680 13.727021 2.063860 1.231060 -46.689899 -1.207747 13.142371 20.626778 -7.431655 -2.194569 17.597355 -0.028617 0.811878 -0.155635 4.041440 -1.030890 17.747002 -4.238600 3.219980 -0.824156 -46.675400 1.473540 22.427200 -53.883400 -15.496200 4.138350 11.154500 -5.276600 -15.153600 16.415367 13.839098 9.399059 -12.011557 24.170128 -103.440208 120.553001 32.421501 -30.922300 -51.468102 4.723330 6.914130 -17.440849 21.610096 26.154139 33.909508 -6.631151 -3.706771 -5.252133 29.380342 10.787552 -0.044027 -19.004595 9.095889 15.935599 -1.931047 -3.941108 -32.896690 33.360683 25.205164 
